<svg xmlns="http://www.w3.org/2000/svg" xmlns:xlink="http://www.w3.org/1999/xlink">

<symbol id="github" fill-rule="evenodd" clip-rule="evenodd" stroke-linejoin="round" stroke-miterlimit="1.414">
<path d="M50.0418 2.75297e-06C38.1599 -0.00392594 26.6645 4.19717 17.6138 11.8511C8.56302 19.5051 2.54796 30.1121 0.6455 41.7731C-1.25695 53.4341 1.07743 65.3876 7.2307 75.4935C13.384 85.5994 22.9543 93.1978 34.2283 96.9282C36.7134 97.3894 37.6495 95.8493 37.6495 94.5316C37.6495 93.3456 37.5998 89.4253 37.5832 85.2744C23.6583 88.2805 20.7259 79.4105 20.7259 79.4105C18.4479 73.6453 15.1759 72.1299 15.1759 72.1299C10.6364 69.0415 15.5155 69.1074 15.5155 69.1074C20.5354 69.4615 23.1862 74.2301 23.1862 74.2301C27.6511 81.8318 34.891 79.6328 37.7406 78.348C38.1879 75.136 39.4884 72.9371 40.9132 71.6934C29.838 70.4581 18.1166 66.1919 18.1166 47.134C18.0439 42.1844 19.8922 37.3972 23.2773 33.7672C22.7554 32.5153 21.049 27.4585 23.7578 20.5897C23.7578 20.5897 27.9576 19.2555 37.5169 25.6877C45.716 23.456 54.3677 23.456 62.5668 25.6877C72.0847 19.2885 76.3177 20.5897 76.3177 20.5897C79.043 27.442 77.3283 32.4988 76.8064 33.7672C80.1852 37.3933 82.0277 42.1751 81.9506 47.1175C81.9506 66.2166 70.2457 70.4251 59.1125 71.6605C60.91 73.2006 62.5088 76.2314 62.5088 80.8682C62.5088 87.5228 62.4508 92.8761 62.4508 94.5151C62.4508 95.8411 63.3537 97.3894 65.8885 96.9035C77.1366 93.1495 86.6769 85.5435 92.8063 75.4431C98.9358 65.3427 101.255 53.4053 99.3514 41.7617C97.4473 30.1181 91.4434 19.5262 82.4113 11.8767C73.3792 4.22711 61.9067 0.017764 50.0418 2.75297e-06V2.75297e-06Z" fill="#191717"/>
<path d="M18.9607 26.2098C18.853 26.4569 18.4554 26.531 18.1323 26.3581C17.8093 26.1851 17.569 25.8557 17.685 25.6086C17.801 25.3615 18.182 25.2874 18.5134 25.4521C18.8447 25.6168 19.085 25.9545 18.9607 26.2016V26.2098Z" fill="#191717"/>
<path d="M20.9901 24.6183C20.7498 24.8406 20.286 24.7336 19.9712 24.3877C19.8189 24.2674 19.7186 24.0938 19.6909 23.9024C19.6632 23.711 19.7101 23.5163 19.8221 23.3582C20.0706 23.1358 20.5179 23.2429 20.8492 23.5888C21.1806 23.9347 21.2386 24.4124 20.9901 24.6183Z" fill="#191717"/>
<path d="M22.9617 22.1064C22.6553 22.3206 22.1334 22.1064 21.8435 21.6782C21.5535 21.2499 21.537 20.7063 21.8435 20.4922C22.1499 20.2781 22.6718 20.4922 22.9617 20.9122C23.2517 21.3323 23.2682 21.8923 22.9617 22.1064V22.1064Z" fill="#191717"/>
<path d="M25.6956 19.1802C25.4222 19.4849 24.8672 19.4025 24.4116 18.9908C24.2125 18.8536 24.0729 18.6467 24.0206 18.4115C23.9684 18.1763 24.0075 17.9302 24.13 17.7224C24.4116 17.4177 24.9583 17.5083 25.4222 17.9119C25.8861 18.3154 25.9855 18.8837 25.6956 19.1802V19.1802Z" fill="#191717"/>
<path d="M29.3902 16.7411C29.266 17.1282 28.7027 17.3094 28.1394 17.1447C27.5761 16.98 27.2033 16.5188 27.311 16.1235C27.4187 15.7281 27.9903 15.547 28.5618 15.7199C29.1334 15.8929 29.4979 16.3458 29.3902 16.7411Z" fill="#191717"/>
<path d="M33.482 15.7894C33.482 16.2012 33.0181 16.5388 32.4217 16.5471C31.8253 16.5553 31.3365 16.2259 31.3365 15.8223C31.3365 15.4187 31.8087 15.0728 32.4051 15.0646C33.0016 15.0564 33.4903 15.3858 33.4903 15.7894H33.482Z" fill="#191717"/>
<path d="M37.2927 16.0886C37.3673 16.4921 36.9531 16.9121 36.3567 17.011C35.7602 17.1098 35.2384 16.871 35.1638 16.4756C35.0893 16.0803 35.5117 15.6521 36.0916 15.545C36.6714 15.4379 37.2099 15.685 37.2844 16.0886H37.2927Z" fill="#191717"/>
</symbol>

<symbol id="mail" fill-rule="evenodd" clip-rule="evenodd" stroke-linejoin="round" stroke-miterlimit="1.414">
<path d="M100 19.8901C100 14.4506 95.5 10 90 10H10C4.5 10 0 14.4506 0 19.8901V79.2308C0 84.6704 4.5 89.1209 10 89.1209H90C95.5 89.1209 100 84.6704 100 79.2308V19.8901ZM90 19.8901L50 44.6154L10 19.8901H90ZM90 79.2308H10V29.7802L50 54.5055L90 29.7802V79.2308Z" fill="black"/>
</symbol>

</svg>