<svg viewBox="0 0 40 40" fill="none" xmlns="http://www.w3.org/2000/svg">
<path d="M20 3.396C11.16 3.396 4 10.56 4 19.396C4 26.4667 8.584 32.4627 14.94 34.576C15.74 34.7267 16.0333 34.232 16.0333 33.8067C16.0333 33.4267 16.02 32.42 16.0133 31.0867C11.5627 32.052 10.624 28.94 10.624 28.94C9.896 27.0933 8.844 26.6 8.844 26.6C7.39467 25.608 8.956 25.628 8.956 25.628C10.5627 25.74 11.4067 27.276 11.4067 27.276C12.8333 29.7227 15.152 29.016 16.0667 28.6067C16.2107 27.572 16.6227 26.8667 17.08 26.4667C13.5267 26.0667 9.792 24.6907 9.792 18.56C9.792 16.8133 10.412 15.3867 11.4387 14.2667C11.2587 13.8627 10.7187 12.236 11.5787 10.032C11.5787 10.032 12.9187 9.60267 15.9787 11.672C17.2587 11.316 18.6187 11.14 19.9787 11.132C21.3387 11.14 22.6987 11.316 23.9787 11.672C27.0187 9.60267 28.3587 10.032 28.3587 10.032C29.2187 12.236 28.6787 13.8627 28.5187 14.2667C29.5387 15.3867 30.1587 16.8133 30.1587 18.56C30.1587 24.7067 26.4187 26.06 22.8587 26.4533C23.4187 26.9333 23.9387 27.9147 23.9387 29.4133C23.9387 31.5547 23.9187 33.2747 23.9187 33.7947C23.9187 34.2147 24.1987 34.7147 25.0187 34.5547C31.42 32.456 36 26.456 36 19.396C36 10.56 28.836 3.396 20 3.396" fill="black"/>
</svg>
